#!OML:ASF F:\VICON\USERDATA\INSTALL\rory3\rory3.ASF
:FULLY-SPECIFIED
:DEGREES
668
root 0.873695 15.5076 3.20469 8.88349 -38.089 11.9385
lowerback -0.0541304 6.08779 6.36345
upperback 2.59227 8.04995 -1.45386
thorax 3.8133 4.2134 -4.69199
lowerneck 2.65787 -10.6973 -12.7067
upperneck 47.6801 -20.2712 8.27034
head 21.5423 -9.73378 3.24466
rclavicle -4.45278e-014 2.54444e-014
rhumerus -23.7192 22.0492 -97.0979
rradius 17.3153
rwrist 14.9696
rhand -27.835 -54.0812
rfingers 7.12502
rthumb -1.22659 -84.0574
lclavicle -4.45278e-014 2.54444e-014
lhumerus -78.033 -84.6922 154.575
lradius 83.2856
lwrist 27.6187
lhand 3.56348 -20.0799
lfingers 7.12502
lthumb 28.9989 7.68403
rfemur -32.1256 -3.3027 -3.34139
rtibia 77.2003
rfoot -3.044 -12.7952
rtoes -33.7179
lfemur -53.2582 -22.614 -29.1906
ltibia 59.8136
lfoot -21.3048 -3.99939
ltoes 16.6633
669
root 0.876013 15.5092 3.2002 8.77699 -38.1236 12.1289
lowerback -0.0134099 6.0939 6.19802
upperback 2.57002 8.06518 -1.49061
thorax 3.75039 4.21513 -4.64554
lowerneck 2.74766 -10.7089 -12.7259
upperneck 47.6494 -20.2827 8.26276
head 21.4905 -9.74645 3.24735
rclavicle 4.05521e-014 1.59028e-015
rhumerus -23.822 22.0754 -97.1218
rradius 17.401
rwrist 15.0167
rhand -27.449 -54.4387
rfingers 7.12502
rthumb -0.853704 -84.4168
lclavicle 4.05521e-014 1.59028e-015
lhumerus -78.1613 -84.5677 154.752
lradius 83.219
lwrist 27.116
lhand 3.1753 -19.8712
lfingers 7.12502
lthumb 28.628 7.95592
rfemur -32.2311 -3.37282 -3.49146
rtibia 77.2326
rfoot -2.70737 -12.7995
rtoes -34.3021
lfemur -53.2398 -22.5397 -29.3684
ltibia 59.7391
lfoot -21.2839 -4.19935
ltoes 17.2856
670
root 0.876798 15.4738 3.18203 8.59616 -38.0968 12.3635
lowerback 0.0557611 6.08407 6.00384
upperback 2.58287 8.06051 -1.53911
thorax 3.70323 4.20781 -4.59792
lowerneck 2.84138 -10.7018 -12.7529
upperneck 47.5663 -20.2967 8.35691
head 21.424 -9.75391 3.30334
rclavicle -7.95139e-015 -7.95139e-015
rhumerus -23.8788 22.0747 -97.1528
rradius 17.48
rwrist 15.0269
rhand -27.1042 -54.7919
rfingers 7.12502
rthumb -0.52074 -84.771
lclavicle -7.95139e-015 -7.95139e-015
lhumerus -78.76 -84.5049 155.364
lradius 83.2147
lwrist 26.958
lhand 3.12739 -19.6446
lfingers 7.12502
lthumb 28.5823 8.19019
rfemur -31.0826 -2.61417 -4.38301
rtibia 77.2539
rfoot -10.8845 -8.1083
rtoes -2.59688
lfemur -53.4081 -22.4721 -29.5276
ltibia 59.8277
lfoot -21.1822 -4.65838
ltoes 18.524
671
root 0.881302 15.5156 3.19019 8.47006 -38.0347 12.5061
lowerback 0.186924 6.01922 5.83898
upperback 2.50919 7.98497 -1.53223
thorax 3.51757 4.15921 -4.52701
lowerneck 3.01533 -10.6128 -12.9185
upperneck 47.5912 -20.215 8.46769
head 21.4396 -9.75477 3.42074
rclavicle 1.12115e-013 -3.33958e-014
rhumerus -24.1015 22.4424 -97.3413
rradius 17.5246
rwrist 14.8168
rhand -26.9213 -55.0638
rfingers 7.12502
rthumb -0.344102 -85.0432
lclavicle 1.12115e-013 -3.33958e-014
lhumerus -79.134 -84.2338 155.719
lradius 83.2804
lwrist 27.163
lhand 2.42311 -19.5477
lfingers 7.12502
lthumb 27.9092 8.39841
rfemur -32.153 -3.44601 -3.81187
rtibia 77.2834
rfoot -2.74556 -12.7815
rtoes -34.2247
lfemur -53.1283 -22.543 -29.6822
ltibia 59.5932
lfoot -21.155 -4.735
ltoes 19.1378
672
root 0.883814 15.48 3.17538 8.46994 -37.9788 12.3562
lowerback 0.269532 5.93508 5.98839
upperback 2.488 7.87323 -1.45546
thorax 3.4447 4.1033 -4.5471
lowerneck 3.16939 -10.4738 -13.2146
upperneck 47.6671 -20.0651 8.60812
head 21.5284 -9.75047 3.59085
rclavicle 7.07673e-014 1.11319e-014
rhumerus -24.397 23.1328 -97.5674
rradius 17.6655
rwrist 14.4636
rhand -26.7481 -55.3481
rfingers 7.12502
rthumb -0.176774 -85.3278
lclavicle 7.07673e-014 1.11319e-014
lhumerus -78.3078 -83.9778 154.905
lradius 83.3112
lwrist 27.2847
lhand 1.81215 -19.7306
lfingers 7.12502
lthumb 27.3249 8.30904
rfemur -30.9298 -2.58671 -4.32791
rtibia 77.2568
rfoot -10.7828 -8.32936
rtoes -3.50456
lfemur -53.1805 -22.4351 -29.7163
ltibia 59.7113
lfoot -21.2968 -4.0517
ltoes 16.9186
673
root 0.888555 15.5139 3.18256 8.49279 -37.9573 12.1882
lowerback 0.254583 5.91012 6.21016
upperback 2.55954 7.83311 -1.41646
thorax 3.54864 4.09267 -4.62317
lowerneck 3.20252 -10.4264 -13.3185
upperneck 47.6821 -19.9929 8.63537
head 21.5439 -9.74083 3.64132
rclavicle -9.38264e-014 4.6118e-014
rhumerus -24.4821 23.5016 -97.6391
rradius 17.8513
rwrist 14.3216
rhand -26.2354 -55.8097
rfingers 7.12502
rthumb 0.318395 -85.7892
lclavicle -9.38264e-014 4.6118e-014
lhumerus -77.118 -83.9159 153.735
lradius 83.3138
lwrist 27.2632
lhand 1.86804 -19.8408
lfingers 7.12502
lthumb 27.3784 8.19039
rfemur -31.9732 -3.22084 -3.50804
rtibia 77.2729
rfoot -2.93477 -12.8806
rtoes -33.7144
lfemur -52.8129 -22.2854 -29.7707
ltibia 59.4352
lfoot -21.4274 -3.52301
ltoes 15.027
674
root 0.891126 15.5162 3.18319 8.49399 -37.9028 12.2344
lowerback 0.0515041 5.90892 6.25459
upperback 2.63132 7.81796 -1.44193
thorax 3.7461 4.0938 -4.64675
lowerneck 3.25668 -10.4384 -13.2974
upperneck 47.6219 -19.9819 8.60653
head 21.4556 -9.7356 3.62642
rclavicle 5.64548e-014 2.38542e-014
rhumerus -24.3822 23.1486 -97.4929
rradius 17.9549
rwrist 14.7982
rhand -25.714 -56.1334
rfingers 7.12502
rthumb 0.821984 -86.1115
lclavicle 5.64548e-014 2.38542e-014
lhumerus -76.025 -83.903 152.637
lradius 83.3283
lwrist 27.3792
lhand 1.92848 -19.6298
lfingers 7.12502
lthumb 27.4362 8.39225
rfemur -31.9456 -3.26609 -3.55387
rtibia 77.2199
rfoot -2.99466 -12.8966
rtoes -33.8867
lfemur -52.8404 -22.316 -29.8305
ltibia 59.478
lfoot -21.4656 -3.41309
ltoes 14.7905
675
root 0.894322 15.5237 3.18949 8.52706 -37.8396 12.2291
lowerback -0.206126 5.86336 6.37875
upperback 2.63904 7.73899 -1.43053
thorax 3.90456 4.06186 -4.67866
lowerneck 3.50766 -10.3427 -13.4357
upperneck 47.5253 -19.8283 8.65002
head 21.2909 -9.7103 3.71932
rclavicle -7.4743e-014 2.8625e-014
rhumerus -24.4862 22.3328 -97.2583
rradius 18.0783
rwrist 15.6713
rhand -25.6217 -55.9437
rfingers 7.12502
rthumb 0.911077 -85.9215
lclavicle -7.4743e-014 2.8625e-014
lhumerus -74.3783 -83.672 150.964
lradius 83.3227
lwrist 27.5531
lhand 1.62909 -19.46
lfingers 7.12502
lthumb 27.1498 8.60705
rfemur -31.9039 -3.33223 -3.55142
rtibia 77.1341
rfoot -2.87212 -12.8593
rtoes -34.6803
lfemur -52.8023 -22.4551 -29.8281
ltibia 59.3645
lfoot -21.4305 -3.2377
ltoes 14.6397
676
root 0.896844 15.489 3.17864 8.51323 -37.7581 12.2042
lowerback -0.416328 5.58302 6.46645
upperback 2.52295 7.34652 -1.25401
thorax 3.83541 3.85941 -4.55787
lowerneck 3.95415 -9.90965 -14.0624
upperneck 47.5869 -19.0956 8.5599
head 21.1172 -9.57353 3.96029
rclavicle 1.29608e-013 5.24792e-014
rhumerus -25.1735 22.6372 -97.3843
rradius 18.3724
rwrist 15.8771
rhand -25.7577 -55.8665
rfingers 7.12502
rthumb 0.779721 -85.8448
lclavicle 1.29608e-013 5.24792e-014
lhumerus -70.0084 -82.7412 146.53
lradius 83.2787
lwrist 27.5802
lhand 1.89394 -19.5549
lfingers 7.12502
lthumb 27.4032 8.47234
rfemur -30.6634 -2.56316 -4.19459
rtibia 77.0388
rfoot -10.9872 -8.06219
rtoes -3.21877
lfemur -52.9899 -22.5163 -29.7948
ltibia 59.5283
lfoot -21.399 -3.29448
ltoes 14.6672
677
root 0.900975 15.5248 3.18832 8.35604 -37.7168 12.342
lowerback -0.61209 5.1267 6.22411
upperback 2.4346 6.72165 -0.947668
thorax 3.70113 3.52841 -4.13985
lowerneck 4.12708 -9.32149 -14.9275
upperneck 47.8872 -18.0061 8.19178
head 21.1154 -9.35374 4.15208
rclavicle -6.36111e-015 1.59028e-015
rhumerus -25.9695 24.3053 -97.8048
rradius 18.5474
rwrist 15.4084
rhand -26.2574 -55.8051
rfingers 7.12502
rthumb 0.297138 -85.7847
lclavicle -6.36111e-015 1.59028e-015
lhumerus -63.9601 -81.3892 140.469
lradius 83.2077
lwrist 27.4275
lhand 2.95727 -19.5546
lfingers 7.12502
lthumb 28.4197 8.30748
rfemur -31.5596 -3.22699 -3.73064
rtibia 77.0036
rfoot -3.75333 -12.726
rtoes -33.3409
lfemur -52.7462 -22.5702 -29.8914
ltibia 59.3837
lfoot -21.2694 -3.97133
ltoes 16.9568
678
root 0.90331 15.5282 3.18216 8.26572 -37.7393 12.4409
lowerback -0.631503 4.89593 5.95172
upperback 2.41106 6.41247 -0.754483
thorax 3.59399 3.35969 -3.81224
lowerneck 3.98716 -9.09379 -15.2935
upperneck 48.1201 -17.496 7.85533
head 21.2175 -9.2485 4.13518
rclavicle 3.49861e-014 -2.54444e-014
rhumerus -26.2175 25.0936 -97.9058
rradius 18.4024
rwrist 15.3777
rhand -26.8585 -55.273
rfingers 7.12502
rthumb -0.283439 -85.2525
lclavicle 3.49861e-014 -2.54444e-014
lhumerus -61.1006 -80.7141 137.641
lradius 83.1822
lwrist 27.3062
lhand 2.63642 -19.56
lfingers 7.12502
lthumb 28.1131 8.3528
rfemur -31.611 -3.20967 -3.8027
rtibia 77.0085
rfoot -3.7675 -12.7382
rtoes -34.2627
lfemur -52.8181 -22.4903 -29.8527
ltibia 59.4096
lfoot -20.9995 -5.11571
ltoes 20.6321
679
root 0.906124 15.5284 3.17503 8.34484 -37.7862 12.4077
lowerback -0.610782 4.91004 5.92356
upperback 2.37329 6.4332 -0.724293
thorax 3.53832 3.36642 -3.7685
lowerneck 3.96861 -9.11928 -15.4049
upperneck 48.1681 -17.5554 7.89106
head 21.316 -9.29007 4.16312
rclavicle -4.69132e-014 -2.22639e-014
rhumerus -26.1582 24.7988 -97.767
rradius 18.301
rwrist 15.6519
rhand -26.9609 -54.8747
rfingers 7.12502
rthumb -0.382283 -84.8541
lclavicle -4.69132e-014 -2.22639e-014
lhumerus -61.08 -80.6263 137.602
lradius 83.1903
lwrist 27.2733
lhand 1.21214 -19.472
lfingers 7.12502
lthumb 26.7509 8.65669
rfemur -31.7551 -3.1709 -3.76344
rtibia 77.029
rfoot -3.66648 -12.7125
rtoes -37.5756
lfemur -52.943 -22.444 -29.696
ltibia 59.3382
lfoot -20.8422 -5.5833
ltoes 21.6973
